# xmcd CD database file
#
# Track frame offsets:
#	150
#	39442
#	73855
#	117677
#	142120
#	172720
#	191827
#
# Disc length: 3207 seconds
#
# Revision: 0
# Processed by: cddbd v1.5PL3 Copyright (c) Steve Scherf et al.
# Submitted via: CDex 1.51
#
DISCID=680c8507
DTITLE=一噌幸弘 - It's so Isso (東京ﾀﾞﾙﾏｶﾞｴﾙ)
DYEAR=1991
DGENRE=Improvised
TTITLE0=とひょひょ
TTITLE1=美病ん
TTITLE2=たんぼのかかしと赤トンボ
TTITLE3=メダカの学校むかし話
TTITLE4=いいか幻想曲
TTITLE5=いなか村
TTITLE6=速流笛破(人生はつらいよ)
EXTD=YEAR: 1991
EXTT0=
EXTT1=
EXTT2=
EXTT3=
EXTT4=
EXTT5=
EXTT6=
PLAYORDER=
